<svg width="30" height="30" viewBox="0 0 30 30" fill="none" xmlns="http://www.w3.org/2000/svg">
<path d="M9.47368 1C4.80137 1 1 4.80137 1 9.47368V20.5263C1 25.1986 4.80137 29 9.47368 29H20.5263C25.1986 29 29 25.1986 29 20.5263V9.47368C29 4.80137 25.1986 1 20.5263 1H9.47368ZM22.3684 6.15789C23.1826 6.15789 23.8421 6.81737 23.8421 7.63158C23.8421 8.44505 23.1826 9.10526 22.3684 9.10526C21.5542 9.10526 20.8947 8.44505 20.8947 7.63158C20.8947 6.81737 21.5542 6.15789 22.3684 6.15789ZM15 7.63158C19.0629 7.63158 22.3684 10.9371 22.3684 15C22.3684 19.0629 19.0629 22.3684 15 22.3684C10.9371 22.3684 7.63158 19.0629 7.63158 15C7.63158 10.9371 10.9371 7.63158 15 7.63158ZM15 9.84211C14.3227 9.84211 13.6519 9.97552 13.0262 10.2347C12.4004 10.4939 11.8318 10.8739 11.3528 11.3528C10.8739 11.8318 10.4939 12.4004 10.2347 13.0262C9.97552 13.6519 9.84211 14.3227 9.84211 15C9.84211 15.6773 9.97552 16.3481 10.2347 16.9738C10.4939 17.5996 10.8739 18.1682 11.3528 18.6472C11.8318 19.1261 12.4004 19.5061 13.0262 19.7653C13.6519 20.0245 14.3227 20.1579 15 20.1579C15.6773 20.1579 16.3481 20.0245 16.9738 19.7653C17.5996 19.5061 18.1682 19.1261 18.6472 18.6472C19.1261 18.1682 19.5061 17.5996 19.7653 16.9738C20.0245 16.3481 20.1579 15.6773 20.1579 15C20.1579 14.3227 20.0245 13.6519 19.7653 13.0262C19.5061 12.4004 19.1261 11.8318 18.6472 11.3528C18.1682 10.8739 17.5996 10.4939 16.9738 10.2347C16.3481 9.97552 15.6773 9.84211 15 9.84211V9.84211Z" fill="#A3A3A3"/>
</svg>
