<svg width="30" height="30" viewBox="0 0 30 30" fill="none" xmlns="http://www.w3.org/2000/svg">
<path d="M15 1C7.27991 1 1 7.27991 1 15C1 22.7201 7.27991 29 15 29C22.7201 29 29 22.7201 29 15C29 7.27991 22.7201 1 15 1ZM21.8399 12.2755C21.846 12.4191 21.8497 12.5652 21.8497 12.7119C21.8497 17.1663 18.4574 22.3043 12.2554 22.3043C10.3514 22.3043 8.57826 21.7462 7.08696 20.7893C7.35052 20.821 7.61774 20.8362 7.89104 20.8362C9.47122 20.8362 10.9254 20.2981 12.0783 19.3936C10.6028 19.3668 9.35861 18.3898 8.92826 17.0519C9.13461 17.0915 9.34583 17.1128 9.56374 17.1128C9.87113 17.1128 10.1694 17.072 10.4512 16.9941C8.91 16.683 7.748 15.322 7.748 13.6877C7.748 13.673 7.748 13.659 7.748 13.645C8.2027 13.8977 8.72191 14.0498 9.27522 14.0675C8.36948 13.4618 7.77539 12.4307 7.77539 11.2608C7.77539 10.643 7.94096 10.0641 8.2313 9.56496C9.89487 11.6047 12.3796 12.9469 15.1814 13.0881C15.1236 12.841 15.0931 12.5841 15.0931 12.3199C15.0931 10.4579 16.6027 8.94835 18.4653 8.94835C19.435 8.94835 20.3109 9.35739 20.9257 10.013C21.6932 9.862 22.4157 9.58139 23.067 9.19548C22.8157 9.98191 22.2806 10.643 21.5837 11.0605C22.2666 10.9777 22.9155 10.7976 23.5211 10.5291C23.0695 11.2054 22.4979 11.8001 21.8399 12.2755Z" fill="#A3A3A3"/>
</svg>
