<svg width="32" height="32" viewBox="0 0 32 32" fill="none" xmlns="http://www.w3.org/2000/svg">
<path d="M30.1626 8.95313C29.8853 7.37244 28.5639 6.22131 27.0305 5.86194C24.7357 5.35937 20.4889 5 15.894 5C11.3018 5 6.98695 5.35937 4.68951 5.86194C3.15878 6.22131 1.83469 7.29944 1.55737 8.95313C1.27732 10.75 1 13.2656 1 16.5C1 19.7344 1.27732 22.25 1.62534 24.0469C1.90538 25.6276 3.22675 26.7787 4.75748 27.1381C7.19358 27.6406 11.3698 28 15.9647 28C20.5595 28 24.7357 27.6406 27.1718 27.1381C28.7026 26.7787 30.0239 25.7006 30.304 24.0469C30.5813 22.25 30.9293 19.6614 31 16.5C30.8586 13.2656 30.5106 10.75 30.1626 8.95313ZM12.1365 21.5312V11.4687L20.6275 16.5L12.1365 21.5312Z" fill="#A3A3A3"/>
</svg>
