<svg width="30" height="30" viewBox="0 0 30 30" fill="none" xmlns="http://www.w3.org/2000/svg">
<path d="M13.4285 1.09996C6.97538 1.82202 1.78486 7.1653 1.08344 13.6639C0.382022 20.4513 4.16969 26.5167 9.92135 28.8273C10.3422 28.9717 10.7631 28.6828 10.7631 28.1052V25.7946C10.7631 25.7946 10.2019 25.939 9.5005 25.939C7.53652 25.939 6.69481 24.206 6.55453 23.1952C6.41424 22.6175 6.13368 22.1843 5.71282 21.751C5.29197 21.6066 5.15169 21.6066 5.15169 21.4622C5.15169 21.1734 5.57254 21.1734 5.71282 21.1734C6.55453 21.1734 7.25595 22.1843 7.53652 22.6175C8.23794 23.7728 9.07964 24.0616 9.5005 24.0616C10.0616 24.0616 10.4825 23.9172 10.7631 23.7728C10.9033 22.7619 11.3242 21.751 12.1659 21.1734C8.93936 20.4513 6.55453 18.5739 6.55453 15.3968C6.55453 13.8083 7.25595 12.2198 8.23794 11.0645C8.09765 10.7756 7.95737 10.0536 7.95737 9.04267C7.95737 8.46502 7.95737 7.59854 8.37822 6.73206C8.37822 6.73206 10.3422 6.73207 12.3062 8.60943C13.0076 8.32061 13.9896 8.1762 14.9716 8.1762C15.9536 8.1762 16.9356 8.32061 17.7773 8.60943C19.601 6.73207 21.7052 6.73206 21.7052 6.73206C21.9858 7.59854 21.9858 8.46502 21.9858 9.04267C21.9858 10.198 21.8455 10.7756 21.7052 11.0645C22.6872 12.2198 23.3886 13.6639 23.3886 15.3968C23.3886 18.5739 21.0038 20.4513 17.7773 21.1734C18.619 21.8954 19.1801 23.1952 19.1801 24.4949V28.2496C19.1801 28.6828 19.601 29.1161 20.1621 28.9717C25.3526 26.8055 29 21.6066 29 15.5413C29 6.87648 21.8455 0.0890646 13.4285 1.09996Z" fill="#A3A3A3"/>
</svg>
