<svg width="30" height="30" viewBox="0 0 30 30" fill="none" xmlns="http://www.w3.org/2000/svg">
<path d="M25.6667 1H4.33333C2.49333 1 1 2.49333 1 4.33333V25.6667C1 27.5067 2.49333 29 4.33333 29H25.6667C27.5067 29 29 27.5067 29 25.6667V4.33333C29 2.49333 27.5067 1 25.6667 1ZM9.66667 11.6667V24.3333H5.66667V11.6667H9.66667ZM5.66667 7.98C5.66667 7.04667 6.46667 6.33333 7.66667 6.33333C8.86667 6.33333 9.62 7.04667 9.66667 7.98C9.66667 8.91333 8.92 9.66667 7.66667 9.66667C6.46667 9.66667 5.66667 8.91333 5.66667 7.98ZM24.3333 24.3333H20.3333C20.3333 24.3333 20.3333 18.16 20.3333 17.6667C20.3333 16.3333 19.6667 15 18 14.9733H17.9467C16.3333 14.9733 15.6667 16.3467 15.6667 17.6667C15.6667 18.2733 15.6667 24.3333 15.6667 24.3333H11.6667V11.6667H15.6667V13.3733C15.6667 13.3733 16.9533 11.6667 19.54 11.6667C22.1867 11.6667 24.3333 13.4867 24.3333 17.1733V24.3333Z" fill="#A3A3A3"/>
</svg>
